<svg width="123" height="114" viewBox="0 0 123 114" fill="none" xmlns="http://www.w3.org/2000/svg">
<path d="M4.39002 112.5H74.92L61.5 64.77C61.5 64.77 71.17 59.59 71.31 45.44C71.45 31.29 71.44 31.29 71.44 31.29C71.44 31.29 63.02 27.02 50.79 27.02C38.56 27.02 31.4 32.63 31.4 32.63C31.4 32.63 26.83 50.54 37.59 59C40.5 61 41.28 66.68 38.97 66.75C36.65 66.82 34.28 73.02 22.01 76.35C9.74002 79.68 2.64002 93.33 4.35002 108.5L4.39002 112.5Z" fill="#FFDCB4"/>
<path d="M103.11 59.8599H80.2598V97.5599H103.11V59.8599Z" fill="#EAE9DA"/>
<path d="M4.39005 112.5C4.39005 112.5 1.93005 90.77 10.72 83.23C19.51 75.69 33.38 70.96 33.38 70.96C33.38 70.96 40.7 81.53 50.85 80.6C61 79.67 61.5 77.56 61.5 77.56L61 112L4.39005 112.5Z" fill="#41A550"/>
<path d="M73.0001 19.36C73.0001 9.77 65.2301 2 55.6401 2H47.6301C38.0401 2 30.2701 9.77 30.2701 19.36L29.0801 26.93L31.4501 30.49C44.1701 25.61 56.8301 25.7 69.4301 31.68L73.0001 28.11V19.36Z" fill="#41A550"/>
<path d="M4.5 112C3.67 112 3 111.33 3 110.5V102.72C3 87.4599 10.06 78.6299 27.37 72.2499C33.79 69.8799 38 67.8999 38 62.1099C38 61.2799 38.67 60.6099 39.5 60.6099C40.33 60.6099 41 61.2799 41 62.1099V62.4999C41 62.5599 41 62.6199 40.99 62.6899C40.68 70.5399 33.89 73.0499 28.41 75.0699C12.28 81.0099 6 88.7699 6 102.72V110.5C6 111.33 5.33 112 4.5 112Z" fill="black"/>
<path d="M51.01 66.75C41.5 66.75 30 56.45 30 43.65V31.5C30 30.67 30.67 30 31.5 30C32.33 30 33 30.67 33 31.5V43.65C33 54.78 42.85 63.75 51.01 63.75C51.93 63.75 52.91 63.63 53.91 63.41C54.73 63.23 55.52 63.73 55.7 64.54C55.88 65.35 55.38 66.15 54.57 66.33C53.36 66.61 52.16 66.75 51.01 66.75Z" fill="black"/>
<path d="M69.2599 54.46C69.0299 54.46 68.7899 54.41 68.5699 54.29C67.8299 53.91 67.5499 53 67.9299 52.27C69.2999 49.62 69.9999 46.84 69.9999 44V29.5C69.9999 28.67 70.6699 28 71.4999 28C72.3299 28 72.9999 28.67 72.9999 29.5V44C72.9999 47.32 72.1899 50.57 70.5899 53.65C70.3299 54.17 69.7999 54.46 69.2599 54.46Z" fill="black"/>
<path d="M51.0302 82H50.5402C43.1502 82 36.9202 78.82 32.9802 73.05C32.5102 72.37 32.6902 71.43 33.3702 70.97C34.0602 70.5 34.9902 70.68 35.4502 71.36C38.8202 76.29 44.1702 79 50.5402 79H51.0302C52.7102 79 54.3402 78.81 55.8802 78.43C56.6802 78.23 57.5002 78.73 57.6902 79.53C57.8902 80.33 57.3902 81.15 56.5902 81.34C54.8202 81.78 52.9502 82 51.0302 82Z" fill="black"/>
<path d="M99 61V84.36L90.53 81.22L81 84.36V61H61V112H118V61H99Z" fill="#FFBB96"/>
<path d="M121.5 114H1.5C0.67 114 0 113.33 0 112.5C0 111.67 0.67 111 1.5 111H121.5C122.33 111 123 111.67 123 112.5C123 113.33 122.33 114 121.5 114Z" fill="black"/>
<path d="M118.5 114H60.5C59.67 114 59 113.33 59 112.5V60.5C59 59.67 59.67 59 60.5 59H118.5C119.33 59 120 59.67 120 60.5V112.5C120 113.33 119.33 114 118.5 114ZM62 111H117V62H62V111Z" fill="black"/>
<path d="M80.5 85.9799C80.19 85.9799 79.88 85.8799 79.62 85.6999C79.23 85.4099 79 84.9599 79 84.4799V61.3599C79 60.5299 79.67 59.8599 80.5 59.8599C81.33 59.8599 82 60.5299 82 61.3599V82.3999L89.55 79.8799C89.88 79.7699 90.23 79.7799 90.55 79.8999L97 82.3099V61.4999C97 60.6699 97.67 59.9999 98.5 59.9999C99.33 59.9999 100 60.6699 100 61.4999V84.4799C100 84.9699 99.76 85.4299 99.35 85.7099C98.94 85.9899 98.43 86.0499 97.97 85.8799L90 82.8899L80.97 85.8999C80.82 85.9499 80.66 85.9799 80.5 85.9799Z" fill="black"/>
<path d="M26.5 113C25.67 113 25 112.33 25 111.5V105.5C25 104.67 25.67 104 26.5 104C27.33 104 28 104.67 28 105.5V111.5C28 112.33 27.33 113 26.5 113Z" fill="black"/>
<path d="M117 62H114.37V111.02H117V62Z" fill="#FF7A45"/>
<path d="M59.9 78.71H57.27V111.02H59.9V78.71Z" fill="#14412D"/>
<path d="M60.9999 76.1899C58.1299 78.0199 54.6899 78.9899 50.8899 78.9899H50.3999C48.7199 78.9899 47.0899 78.7999 45.5499 78.4199C44.7499 78.2199 43.9299 78.7199 43.7399 79.5199C43.5399 80.3199 44.0399 81.1399 44.8399 81.3299C46.6099 81.7799 48.4799 81.9999 50.3999 81.9999H50.8899C54.5999 81.9999 58.0199 81.1999 60.9999 79.6699V76.1899Z" fill="black"/>
<path d="M72.5 29C71.67 29 71 28.33 71 27.5V18.86C71 10.11 63.89 3 55.14 3H46.86C38.11 3 31 10.11 31 18.86V24.5C31 25.33 30.33 26 29.5 26C28.67 26 28 25.33 28 24.5V18.86C28 8.46 36.46 0 46.86 0H55.14C65.54 0 74 8.46 74 18.86V27.5C74 28.33 73.33 29 72.5 29Z" fill="black"/>
<path d="M69.77 24C69.05 24 68.46 23.44 68.46 22.76V18.61C68.46 11.37 62.26 5.49 54.63 5.49H47.41C39.78 5.49 33.58 11.38 33.58 18.61V23.28C33.58 23.97 32.99 24.52 32.27 24.52C31.55 24.52 30.96 23.96 30.96 23.28V18.61C30.96 10 38.34 3 47.41 3H54.63C63.7 3 71.08 10 71.08 18.61V22.76C71.08 23.44 70.49 24 69.77 24Z" fill="#14412D"/>
<path d="M69.2001 32.8301C68.3801 32.8301 67.5001 32.4501 66.3401 31.9501C63.7901 30.8501 59.0401 28.8101 50.2701 28.8101C41.3401 28.8101 37.0601 30.8801 34.7501 32.0001C33.4301 32.6401 32.4701 33.1101 31.4201 32.6601C30.6901 32.3501 30.3201 31.7201 30.1301 31.2801L28.2701 29.4201C27.9901 29.1401 27.8301 28.7601 27.8301 28.3601C27.8301 21.7601 37.8901 16.3901 50.2601 16.3901C53.1001 16.3901 55.9301 16.6701 58.6701 17.2301C59.4801 17.3901 60.0101 18.1801 59.8401 19.0001C59.6801 19.8101 58.8901 20.3401 58.0701 20.1701C55.5301 19.6601 52.9001 19.3901 50.2601 19.3901C40.3301 19.3901 31.5601 23.2501 30.8701 27.7801L32.4801 29.3901C32.5601 29.4701 32.6301 29.5601 32.6901 29.6501C32.9201 29.5501 33.1901 29.4101 33.4401 29.3001C35.9601 28.0801 40.6401 25.8101 50.2601 25.8101C59.6501 25.8101 64.7701 28.0101 67.5201 29.2001C67.9801 29.4001 68.4801 29.6201 68.8301 29.7401C68.9001 29.6101 68.9901 29.5001 69.0901 29.4001L70.6901 27.8001C70.3601 26.0201 68.5201 24.1701 65.5201 22.6501C64.7801 22.2801 64.4801 21.3701 64.8601 20.6301C65.2401 19.8901 66.1401 19.6001 66.8801 19.9701C71.3101 22.2101 73.7501 25.1901 73.7501 28.3601C73.7501 28.7601 73.5901 29.1401 73.3101 29.4201L71.4401 31.2901C71.1501 31.9301 70.7301 32.3801 70.1801 32.6301C69.8601 32.7701 69.5301 32.8301 69.2001 32.8301Z" fill="black"/>
</svg>
