<svg width="86" height="107" viewBox="0 0 86 107" fill="none" xmlns="http://www.w3.org/2000/svg">
<g clip-path="url(#clip0)">
<path d="M76.7521 10.7734H19.2563V83.2494H76.7521V10.7734Z" fill="#AAA98D"/>
<path d="M72.8541 9.79419H19.2563V83.2496H72.8541V9.79419Z" fill="#EAE9DA"/>
<path d="M76.7521 9.79414H19.2563V4.90691C19.2563 2.74242 21.0105 0.979492 23.1641 0.979492H72.8443C74.998 0.979492 76.7521 2.74242 76.7521 4.90691V9.79414Z" fill="#14412D"/>
<path d="M72.8541 9.79414H19.2563V4.90691C19.2563 2.74242 21.0105 0.979492 23.1641 0.979492H68.9463C71.1 0.979492 72.8541 2.74242 72.8541 4.90691V9.79414Z" fill="#41A550"/>
<path d="M76.7521 82.27H19.2563V87.1572C19.2563 89.3217 21.0105 91.0847 23.1641 91.0847H72.8443C74.998 91.0847 76.7521 89.3217 76.7521 87.1572V82.27Z" fill="#14412D"/>
<path d="M72.8541 82.27H19.2563V87.1572C19.2563 89.3217 21.0105 91.0847 23.1641 91.0847H68.9463C71.1 91.0847 72.8541 89.3217 72.8541 87.1572V82.27Z" fill="#41A550"/>
<path d="M49.4656 91.0847H21.2342C20.1427 91.0847 19.2559 90.1935 19.2559 89.0965V31.2627C19.2559 28.06 16.6735 25.4646 13.4869 25.4646H8.36096C7.37671 25.4646 6.58737 26.2677 6.58737 27.2471V48.7842C6.58737 50.6549 6.12935 52.4962 5.2328 54.1416C3.79054 56.786 1.71484 61.4871 1.71484 66.5996C1.71484 71.9765 3.52742 76.2565 4.94045 78.7834C5.94419 80.5757 6.16833 82.6912 5.58363 84.6598L3.66385 91.0847L34.848 106.755L38.2588 101.839L49.4656 91.0847Z" fill="#FFDCB4"/>
<path d="M22.4819 91.0848C20.6986 91.0848 19.2465 89.6254 19.2465 87.8331V34.9355C19.2465 31.3606 17.278 28.2559 14.374 26.6399V87.3336C14.374 92.1033 18.2233 95.9818 22.9692 95.9818H43.8723L49.4464 91.0848H22.4819Z" fill="#FFCBA4"/>
<path d="M72.9903 93.0435H23.0177C19.8701 93.0435 17.3071 90.4676 17.3071 87.3042V5.73931C17.3071 2.57584 19.8701 0 23.0177 0H72.9903C76.1379 0 78.7009 2.57584 78.7009 5.73931V20.0778C78.7009 20.8907 78.048 21.5469 77.2391 21.5469C76.4303 21.5469 75.7774 20.8907 75.7774 20.0778V5.73931C75.7774 4.19185 74.53 2.93822 72.9903 2.93822H23.0177C21.478 2.93822 20.2306 4.19185 20.2306 5.73931V87.3042C20.2306 88.8516 21.478 90.1053 23.0177 90.1053H72.9903C74.53 90.1053 75.7774 88.8516 75.7774 87.3042V71.9863C75.7774 71.1734 76.4303 70.5172 77.2391 70.5172C78.048 70.5172 78.7009 71.1734 78.7009 71.9863V87.3042C78.7009 90.4676 76.1379 93.0435 72.9903 93.0435Z" fill="black"/>
<path d="M76.752 10.7735H19.2562C18.7203 10.7735 18.2817 10.3328 18.2817 9.7941C18.2817 9.25543 18.7203 8.8147 19.2562 8.8147H76.752C77.288 8.8147 77.7265 9.25543 77.7265 9.7941C77.7265 10.3328 77.288 10.7735 76.752 10.7735Z" fill="black"/>
<path d="M35.5304 107C35.2868 107 35.0432 106.941 34.819 106.814C34.1174 106.422 33.864 105.521 34.2538 104.816L34.897 103.67C36.2321 101.28 37.9862 99.2137 40.1301 97.5292L48.9006 90.6341C49.534 90.1346 50.4598 90.2424 50.9568 90.8888C51.4538 91.5254 51.3466 92.446 50.7034 92.9553L41.9329 99.8503C40.1008 101.3 38.5904 103.063 37.4404 105.11L36.7973 106.256C36.5342 106.726 36.0372 107 35.5304 107Z" fill="black"/>
<path d="M3.78108 91.9761C3.56669 91.9761 3.34255 91.9271 3.12816 91.8194C2.40703 91.457 2.11467 90.5755 2.47524 89.8508L3.59592 87.5981C5.06742 84.6305 4.90176 81.183 3.16714 78.3721C1.12068 75.0813 0 70.9384 0 66.6976C0 61.7712 1.46176 57.1288 4.11241 53.6226C5.07717 52.3493 5.61315 50.6746 5.61315 48.9214V27.3843C5.61315 25.2394 7.34776 23.5059 9.47218 23.5059H11.3432C16.245 23.5059 20.2307 27.5116 20.2307 32.438V35.7484C20.2307 36.5613 19.5778 37.2175 18.769 37.2175C17.9601 37.2175 17.3072 36.5613 17.3072 35.7484V32.438C17.3072 29.1374 14.6371 26.4441 11.3432 26.4441H9.47218C8.9557 26.4441 8.53666 26.8652 8.53666 27.3843V48.9214C8.53666 51.321 7.79603 53.6226 6.44147 55.4051C4.17088 58.4021 2.92351 62.4078 2.92351 66.6976C2.92351 70.3998 3.88827 73.9942 5.64238 76.8247C7.92272 80.5072 8.13711 85.0321 6.20759 88.9105L5.08691 91.1632C4.83354 91.6822 4.31705 91.9761 3.78108 91.9761Z" fill="black"/>
<path d="M76.752 84.2288H19.2562C18.7203 84.2288 18.2817 83.7881 18.2817 83.2494C18.2817 82.7108 18.7203 82.27 19.2562 82.27H76.752C77.288 82.27 77.7265 82.7108 77.7265 83.2494C77.7265 83.7881 77.288 84.2288 76.752 84.2288Z" fill="black"/>
<path d="M75.2416 40.5573H64.3467V9.79419H28.29V40.5573H19.2563V54.269H28.29V83.2104H64.3467V54.269H75.2416V40.5573Z" fill="#FFBB96"/>
<path d="M46.3183 50.3513L55.5761 70.9188L45.8311 67.9806L37.0605 70.9188L46.3183 50.3513Z" fill="#14412D"/>
<path d="M64.3463 41.5367H63.5764C61.8515 41.5367 60.4482 40.1264 60.4482 38.3928V9.79419H64.3463V41.5367Z" fill="#FF7A45"/>
<path d="M64.3463 54.2689H75.2412V50.3513H64.3852C62.2121 50.3513 60.4482 52.124 60.4482 54.3081V83.2104H64.3463V54.2689Z" fill="#FF7A45"/>
<path d="M37.0605 70.9189L45.8311 67.9807L52.1946 69.9003L44.8566 53.603L37.0605 70.9189Z" fill="#41A550"/>
<path d="M64.3465 84.1897H28.2899C27.7539 84.1897 27.3154 83.749 27.3154 83.2103V55.2483H19.2465C18.7105 55.2483 18.272 54.8076 18.272 54.2689V40.5572C18.272 40.0185 18.7105 39.5778 19.2465 39.5778H27.3154V9.7941C27.3154 9.25543 27.7539 8.8147 28.2899 8.8147H64.3465C64.8825 8.8147 65.321 9.25543 65.321 9.7941V39.5778H75.7677C76.3037 39.5778 76.7422 40.0185 76.7422 40.5572V54.2689C76.7422 54.8076 76.3037 55.2483 75.7677 55.2483H65.321V83.2103C65.321 83.749 64.8923 84.1897 64.3465 84.1897ZM29.2644 82.2309H63.372V54.2689C63.372 53.7302 63.8106 53.2895 64.3465 53.2895H74.7932V41.5366H64.3465C63.8106 41.5366 63.372 41.0959 63.372 40.5572V10.7735H29.2644V40.5572C29.2644 41.0959 28.8259 41.5366 28.2899 41.5366H20.221V53.2895H28.2899C28.8259 53.2895 29.2644 53.7302 29.2644 54.2689V82.2309Z" fill="black"/>
<path d="M56.5503 72.3585C56.4626 72.3585 56.3749 72.3487 56.2872 72.3193L46.318 69.4595L36.3488 72.3193C35.9785 72.4173 35.5887 72.2997 35.3353 72.0157C35.0917 71.7219 35.0332 71.3105 35.1989 70.9677L45.4312 48.9997C45.5871 48.6569 45.9379 48.4316 46.318 48.4316C46.698 48.4316 47.0391 48.6471 47.2048 48.9997L57.4371 70.9677C57.6027 71.3105 57.5443 71.7219 57.3007 72.0157C57.1058 72.241 56.8329 72.3585 56.5503 72.3585ZM46.318 67.4615C46.4057 67.4615 46.4934 67.4713 46.5811 67.5007L54.7572 69.8512L46.318 51.7322L37.8788 69.8512L46.0549 67.5007C46.1426 67.4811 46.2303 67.4615 46.318 67.4615Z" fill="black"/>
<path d="M47.78 43.9852H44.8564V41.047H47.78V43.9852ZM47.78 38.1088H44.8564V35.1706H47.78V38.1088ZM47.78 32.2324H44.8564V29.2942H47.78V32.2324ZM47.78 26.3559H44.8564V23.4177H47.78V26.3559Z" fill="black"/>
<path d="M82.5115 66.5603L76.9568 70.4682C75.3099 71.6239 73.0491 71.2223 71.8992 69.5671L71.256 68.6465C70.1061 66.9913 70.5056 64.7191 72.1525 63.5634L77.7072 59.6555C79.3541 58.4998 81.615 58.9014 82.7649 60.5566L83.4081 61.4772C84.558 63.1226 84.1584 65.4046 82.5115 66.5603Z" fill="#FFDCB4"/>
<path d="M82.716 54.6607L77.6779 58.2061C75.6411 59.6458 72.8248 59.1463 71.4021 57.0896L70.8563 56.2963C69.4238 54.2493 69.9208 51.4188 71.9673 49.9889L77.0055 46.4435C79.0422 45.0037 81.8585 45.5032 83.2813 47.56L83.827 48.3533C85.2498 50.4003 84.7528 53.2307 82.716 54.6607Z" fill="#FFDCB4"/>
<path d="M82.2382 42.1537L77.9601 45.1605C75.7577 46.7079 72.727 46.1693 71.1873 43.9558C69.6476 41.7424 70.1836 38.6964 72.386 37.1489L76.664 34.1422C78.8664 32.5947 81.8971 33.1334 83.4368 35.3468C84.9766 37.5603 84.4406 40.6062 82.2382 42.1537Z" fill="#FFDCB4"/>
<path d="M82.2286 29.3234L77.931 32.3498C75.7481 33.8874 72.7466 33.3488 71.2167 31.1647C69.6867 28.9708 70.2227 25.9543 72.3958 24.4166L76.6934 21.3902C78.8763 19.8526 81.8777 20.3912 83.4077 22.5753C84.9377 24.7692 84.4114 27.7858 82.2286 29.3234Z" fill="#FFDCB4"/>
<path d="M75.4362 73.093C73.3898 73.093 71.3725 72.1234 70.1154 70.3213C69.1214 68.8914 68.7414 67.1676 69.0435 65.4537C69.3456 63.7397 70.2908 62.2412 71.7136 61.252L75.8065 58.3726C78.73 56.3158 82.784 57.0308 84.8304 59.969C85.8244 61.3989 86.2045 63.1227 85.9024 64.8367C85.6003 66.5506 84.655 68.0491 83.2323 69.0383L79.1393 71.9178C78.0187 72.7111 76.7226 73.093 75.4362 73.093ZM79.5194 60.1257C78.8178 60.1257 78.1064 60.3314 77.4827 60.7721L73.3898 63.6516C72.6102 64.2 72.0937 65.0227 71.928 65.963C71.7623 66.9032 71.9767 67.8532 72.5127 68.6367C73.6431 70.2528 75.865 70.6445 77.4729 69.5182L81.5659 66.6388C82.3455 66.0903 82.8619 65.2676 83.0276 64.3274C83.1933 63.3871 82.9886 62.4371 82.4429 61.6536C81.7413 60.6644 80.6401 60.1257 79.5194 60.1257Z" fill="black"/>
<path d="M75.4365 60.253C73.3901 60.253 71.3728 59.2833 70.1157 57.4812C68.0693 54.543 68.7807 50.4687 71.7042 48.4119L75.7971 45.5325C78.7206 43.4757 82.7745 44.1907 84.821 47.1289C86.8675 50.0671 86.1561 54.1415 83.2326 56.1982L79.1396 59.0777C78.019 59.871 76.7229 60.253 75.4365 60.253ZM79.5099 47.2856C78.8083 47.2856 78.0969 47.4913 77.4732 47.932L73.3803 50.8115C71.7724 51.9476 71.3826 54.1806 72.5033 55.7967C73.6337 57.4127 75.8556 57.8044 77.4635 56.6781L81.5564 53.7987C83.1643 52.6626 83.5541 50.4295 82.4335 48.8135C81.7416 47.8145 80.6404 47.2856 79.5099 47.2856Z" fill="black"/>
<path d="M75.4365 47.4129C73.3901 47.4129 71.3728 46.4433 70.1157 44.6411C68.0693 41.7029 68.7807 37.6286 71.7042 35.5719L75.7971 32.6924C78.7206 30.6357 82.7745 31.3506 84.821 34.2888C86.8675 37.227 86.1561 41.3014 83.2326 43.3581L79.1396 46.2376C78.019 47.0309 76.7229 47.4129 75.4365 47.4129ZM79.5099 34.4455C78.8083 34.4455 78.0969 34.6512 77.4732 35.0919L73.3803 37.9714C72.6007 38.5199 72.0842 39.3426 71.9186 40.2828C71.7529 41.223 71.9673 42.173 72.5033 42.9566C73.6337 44.5726 75.8556 44.9643 77.4635 43.838L81.5564 40.9586C82.336 40.4101 82.8525 39.5874 83.0182 38.6472C83.1838 37.707 82.9792 36.7569 82.4335 35.9734C81.7416 34.9744 80.6404 34.4455 79.5099 34.4455Z" fill="black"/>
<path d="M75.446 34.573C75.0659 34.573 74.6859 34.5437 74.3058 34.4751C72.6004 34.1715 71.1094 33.2215 70.1252 31.7915C69.1312 30.3616 68.7511 28.6379 69.0532 26.9239C69.3553 25.2099 70.3006 23.7114 71.7234 22.7222L75.8163 19.8428C78.7398 17.786 82.7938 18.501 84.8402 21.4392C85.8342 22.8692 86.2143 24.5929 85.9122 26.3069C85.6101 28.0208 84.6648 29.5193 83.242 30.5085L79.1491 33.388C78.0479 34.1715 76.7616 34.573 75.446 34.573ZM79.5194 21.6057C78.8178 21.6057 78.1064 21.8114 77.4827 22.2521L73.3898 25.1316C72.6102 25.6801 72.0937 26.5028 71.928 27.443C71.7624 28.3832 71.9768 29.3332 72.5127 30.1168C73.0585 30.9003 73.877 31.4194 74.8126 31.5859C75.7481 31.7524 76.6934 31.5369 77.473 30.9884L81.5659 28.109C82.3455 27.5605 82.862 26.7378 83.0276 25.7976C83.1933 24.8574 82.9887 23.9073 82.4429 23.1238C81.7413 22.1346 80.6401 21.6057 79.5194 21.6057Z" fill="black"/>
</g>
<defs>
<clipPath id="clip0">
<rect width="86" height="107" fill="white"/>
</clipPath>
</defs>
</svg>
