<svg width="14" height="16" viewBox="0 0 14 16" fill="none" xmlns="http://www.w3.org/2000/svg">
<path d="M12.5613 3.9041C12.2304 3.141 11.7533 2.45007 11.1568 1.87031C10.5585 1.28531 9.85304 0.821001 9.0791 0.502734C8.27402 0.16875 7.41973 0 6.53906 0C5.6584 0 4.8041 0.16875 3.99902 0.500977C3.22031 0.822656 2.52246 1.2832 1.92129 1.86855C1.32525 2.44864 0.848172 3.13949 0.516797 3.90234C0.174023 4.69336 0 5.53359 0 6.39844C0 7.63945 0.29707 8.8752 0.880664 10.067C1.35 11.025 2.00566 11.9584 2.83184 12.8461C4.24336 14.3613 5.72344 15.2877 6.14355 15.5355C6.2628 15.606 6.39881 15.643 6.5373 15.6428C6.67441 15.6428 6.80977 15.6076 6.93105 15.5355C7.35117 15.2877 8.83125 14.3613 10.2428 12.8461C11.0689 11.9602 11.7246 11.025 12.1939 10.067C12.7811 8.87695 13.0781 7.64297 13.0781 6.4002C13.0781 5.53535 12.9041 4.69512 12.5613 3.9041ZM6.53906 14.2945C5.38066 13.558 1.26562 10.6418 1.26562 6.4002C1.26562 5.03086 1.8123 3.74414 2.80547 2.77383C3.80215 1.80176 5.12754 1.26562 6.53906 1.26562C7.95059 1.26562 9.27598 1.80176 10.2727 2.77559C11.2658 3.74414 11.8125 5.03086 11.8125 6.4002C11.8125 10.6418 7.69746 13.558 6.53906 14.2945ZM6.53906 3.44531C4.83047 3.44531 3.44531 4.83047 3.44531 6.53906C3.44531 8.24766 4.83047 9.63281 6.53906 9.63281C8.24766 9.63281 9.63281 8.24766 9.63281 6.53906C9.63281 4.83047 8.24766 3.44531 6.53906 3.44531ZM7.93125 7.93125C7.74865 8.11437 7.53165 8.25959 7.29272 8.35853C7.0538 8.45748 6.79767 8.50821 6.53906 8.50781C6.01348 8.50781 5.51953 8.30215 5.14687 7.93125C4.96375 7.74865 4.81854 7.53165 4.71959 7.29272C4.62064 7.0538 4.56991 6.79767 4.57031 6.53906C4.57031 6.01348 4.77598 5.51953 5.14687 5.14687C5.51953 4.77422 6.01348 4.57031 6.53906 4.57031C7.06465 4.57031 7.55859 4.77422 7.93125 5.14687C8.30391 5.51953 8.50781 6.01348 8.50781 6.53906C8.50781 7.06465 8.30391 7.55859 7.93125 7.93125Z" fill="#41A550"/>
</svg>
