<svg width="95" height="94" viewBox="0 0 95 94" fill="none" xmlns="http://www.w3.org/2000/svg">
<g clip-path="url(#clip0)">
<path d="M37.48 73.98C57.6384 73.98 73.98 57.6384 73.98 37.48C73.98 17.3216 57.6384 0.97998 37.48 0.97998C17.3216 0.97998 0.97998 17.3216 0.97998 37.48C0.97998 57.6384 17.3216 73.98 37.48 73.98Z" fill="#41A550"/>
<path d="M65.3599 71.0002L80.2699 89.6802C83.0699 93.1902 88.3099 93.4902 91.4899 90.3102C94.6699 87.1302 94.3799 81.8902 90.8599 79.0902L72.1799 64.1802L65.3599 71.0002Z" fill="#FF7A45"/>
<path d="M65.3599 71.0002L79.0899 88.2102C81.9499 89.8702 85.7099 89.5302 88.2099 87.0302C90.7099 84.5302 91.0499 80.7702 89.3899 77.9102L72.1799 64.1802L65.3599 71.0002Z" fill="#FFBB96"/>
<path d="M66.1285 59.9824L61.0444 65.0664L66.6164 70.6384L71.7004 65.5543L66.1285 59.9824Z" fill="#EAE9DA"/>
<path d="M37.48 65.98C53.2201 65.98 65.98 53.2201 65.98 37.48C65.98 21.7399 53.2201 8.97998 37.48 8.97998C21.7399 8.97998 8.97998 21.7399 8.97998 37.48C8.97998 53.2201 21.7399 65.98 37.48 65.98Z" fill="#AAA98D"/>
<path d="M35.48 62.98C50.1155 62.98 61.98 51.1155 61.98 36.48C61.98 21.8444 50.1155 9.97998 35.48 9.97998C20.8444 9.97998 8.97998 21.8444 8.97998 36.48C8.97998 51.1155 20.8444 62.98 35.48 62.98Z" fill="#EAE9DA"/>
<path d="M37.4801 74.9601C27.8801 74.9601 18.2701 71.3001 10.9601 63.9901C-3.65988 49.3701 -3.65988 25.5801 10.9601 10.9601C25.5801 -3.65988 49.3701 -3.65988 63.9901 10.9601C78.6101 25.5801 78.6201 49.3801 64.0001 64.0001C56.6901 71.3101 47.0801 74.9601 37.4801 74.9601ZM37.4801 2.00012C28.3901 2.00012 19.3001 5.46012 12.3801 12.3801C-1.45988 26.2201 -1.45988 48.7401 12.3801 62.5901C26.2201 76.4401 48.7401 76.4301 62.5801 62.5901C76.4201 48.7501 76.4201 26.2301 62.5801 12.3801C55.6601 5.46012 46.5701 2.00012 37.4801 2.00012Z" fill="black"/>
<path d="M37.4801 66.9701C29.9301 66.9701 22.3701 64.0901 16.6201 58.3401C5.12012 46.8401 5.12012 28.1201 16.6201 16.6201C28.1201 5.12012 46.8401 5.12012 58.3401 16.6201C69.8401 28.1201 69.8401 46.8401 58.3401 58.3401C52.5901 64.0901 45.0401 66.9701 37.4801 66.9701ZM37.4801 10.0001C30.4401 10.0001 23.4001 12.6801 18.0301 18.0401C7.31012 28.7601 7.31012 46.2101 18.0301 56.9301C28.7501 67.6501 46.2001 67.6501 56.9201 56.9301C67.6401 46.2101 67.6401 28.7601 56.9201 18.0401C51.5701 12.6801 44.5201 10.0001 37.4801 10.0001Z" fill="black"/>
<path d="M86.1102 93.5203C85.9502 93.5203 85.7902 93.5203 85.6302 93.5103C83.2102 93.3703 80.9502 92.2103 79.4302 90.3103L63.9702 70.9203L72.0502 62.8403L91.4402 78.3003C93.3402 79.8103 94.5002 82.0703 94.6402 84.5003C94.7802 86.9203 93.8702 89.3003 92.1502 91.0203C90.5402 92.6203 88.3702 93.5203 86.1102 93.5203ZM66.6502 71.0703L81.0002 89.0503C82.1602 90.5003 83.8902 91.4003 85.7502 91.5003C87.6002 91.6003 89.4202 90.9103 90.7402 89.6003C92.0502 88.2903 92.7502 86.4703 92.6502 84.6103C92.5502 82.7503 91.6502 81.0203 90.2002 79.8603L72.2102 65.5203L66.6502 71.0703Z" fill="black"/>
<path d="M76.2143 66.8477L67.9766 75.0854L69.3908 76.4996L77.6285 68.2619L76.2143 66.8477Z" fill="black"/>
<path d="M61.8019 64.4647L60.3877 65.8789L65.8536 71.3448L67.2678 69.9306L61.8019 64.4647Z" fill="black"/>
<path d="M66.8881 59.3693L65.4741 60.7837L70.9408 66.2488L72.3548 64.8344L66.8881 59.3693Z" fill="black"/>
</g>
<defs>
<clipPath id="clip0">
<rect width="94.65" height="93.52" fill="white"/>
</clipPath>
</defs>
</svg>
