<svg width="94" height="103" viewBox="0 0 94 103" fill="none" xmlns="http://www.w3.org/2000/svg">
<g clip-path="url(#clip0)">
<path d="M91.57 49.1499H0.800049V57.3499H91.57V49.1499Z" fill="#EAE9DA"/>
<path d="M54.9201 49.9399H36.3701V57.0299H54.9201V49.9399Z" fill="#AAA98D"/>
<path d="M80 100.34H12.8L6.98999 57.3601H85.23L80 100.34Z" fill="#EAE9DA"/>
<path d="M85.3 57.8999H7.5V62.2999H85.3V57.8999Z" fill="#AAA98D"/>
<path d="M36.3799 57.54V61.47C36.3799 66.6 40.5599 70.78 45.6899 70.78C50.8199 70.78 54.9999 66.61 54.9999 61.47V57.54H36.3799Z" fill="#AAA98D"/>
<path d="M28.06 89.46C26.51 89.46 25.26 88.21 25.26 86.66V66.3C25.26 64.75 26.51 63.5 28.06 63.5C29.61 63.5 30.86 64.75 30.86 66.3V86.66C30.86 88.21 29.6 89.46 28.06 89.46Z" fill="white"/>
<path d="M45.8601 90.46C44.3101 90.46 43.0601 89.21 43.0601 87.66V67.3C43.0601 65.75 44.3101 64.5 45.8601 64.5C47.4101 64.5 48.6601 65.75 48.6601 67.3V87.66C48.6601 89.21 47.4001 90.46 45.8601 90.46Z" fill="white"/>
<path d="M45.5 63.5C43.95 63.5 42.7 64.75 42.7 66.3V72.11C43.65 72.41 44.6499 72.57 45.6899 72.57C46.5899 72.57 47.4599 72.44 48.2999 72.21V66.3C48.2999 64.76 47.04 63.5 45.5 63.5Z" fill="#EAE9DA"/>
<path d="M61.6601 89.46C60.1101 89.46 58.8601 88.21 58.8601 86.66V66.3C58.8601 64.75 60.1101 63.5 61.6601 63.5C63.2101 63.5 64.4601 64.75 64.4601 66.3V86.66C64.4601 88.21 63.2001 89.46 61.6601 89.46Z" fill="white"/>
<path d="M46.1901 66.9701C43.7701 66.9701 41.8101 65.0101 41.8101 62.5901V7.71008C41.8101 5.29008 43.7701 3.33008 46.1901 3.33008C48.6101 3.33008 50.5701 5.29008 50.5701 7.71008V62.5901C50.5801 65.0101 48.6101 66.9701 46.1901 66.9701Z" fill="#EAE9DA"/>
<path d="M41 58.02H0V48.02H40V50.02H2V56.02H41V58.02Z" fill="black"/>
<path d="M93 58.02H52V56.02H91V50.02H50V48.02H93V58.02Z" fill="black"/>
<path d="M45.55 68.03H45.46C42.44 68.03 39.99 65.58 39.99 62.56V7.47C39.99 4.45 42.44 2 45.46 2C48.57 2 51.02 4.45 51.02 7.47V62.56C51.02 65.58 48.56 68.03 45.55 68.03ZM42.02 7.47V62.56C42.02 64.46 43.56 66 45.46 66H45.55C47.45 66 48.99 64.46 48.99 62.56V7.47C48.98 2.87 42.02 2.97 42.02 7.47Z" fill="black"/>
<path d="M24.96 86.12V65.92C24.96 63.9 26.5 61.98 29.1 61.98C31.27 61.98 33.04 63.75 33.04 65.92V86.12C33.04 91.28 24.96 91.4 24.96 86.12ZM27.04 65.92V86.12C27.04 87.11 27.77 87.98 29.1 87.98C30.13 87.98 30.96 87.14 30.96 86.12V65.92C30.96 64.89 30.12 64.06 29.1 64.06C27.77 64.05 27.04 64.92 27.04 65.92Z" fill="black"/>
<path d="M45.8 91.29C43.71 91.29 42 89.59 42 87.49V66.02H44V87.5C44 88.5 44.68 89.3 46.2 89.3C47.19 89.3 48 88.49 48 87.5V65.02H50V87.5C50 89.3 48.71 91.29 45.8 91.29Z" fill="black"/>
<path d="M61.9 90.0499C59.73 90.0499 57.96 88.2799 57.96 86.1099V65.9099C57.96 60.6599 66.03 60.6599 66.03 65.9099V86.1099C66.04 88.1299 64.49 90.0499 61.9 90.0499ZM61.9 64.0499C60.87 64.0499 60.04 64.8899 60.04 65.9099V86.1099C60.04 87.1399 60.88 87.9699 61.9 87.9699H62.1C63.13 87.9699 63.96 87.1299 63.96 86.1099V65.9099C63.96 64.8799 63.12 64.0499 62.1 64.0499H61.9Z" fill="black"/>
<path d="M46.9599 61.97C46.9599 62.67 46.3899 63.24 45.6899 63.24C44.9899 63.24 44.4199 62.67 44.4199 61.97C44.4199 61.27 44.9899 60.7 45.6899 60.7C46.3899 60.7 46.9599 61.27 46.9599 61.97Z" fill="black"/>
<path d="M86 99.02H80V101.02H86V99.02Z" fill="black"/>
<path d="M12 99.02H6V101.02H12V99.02Z" fill="black"/>
<path d="M81.0299 101.02H11.2699L5.67993 56.02H41.9999V58.02H7.94993L13.0399 99.02H79.2799L84.6699 58.02H50.9999V56.02H86.9499L81.0299 101.02Z" fill="black"/>
</g>
<defs>
<clipPath id="clip0">
<rect width="93" height="99.02" fill="white" transform="translate(0 2)"/>
</clipPath>
</defs>
</svg>
