<svg width="129" height="104" viewBox="0 0 129 104" fill="none" xmlns="http://www.w3.org/2000/svg">
<g clip-path="url(#clip0)">
<path d="M17.9149 9.74988H2.66797C2.66797 4.10571 5.07481 0.769043 10.0627 0.769043C15.0398 0.769043 17.9149 4.10571 17.9149 9.74988Z" fill="#AAA98D"/>
<path d="M101.773 99.6663H25.9087C22.0861 99.6663 18.9932 96.5897 18.9932 92.7872V1.08301H95.119C98.7891 1.08301 101.762 4.04051 101.762 7.69134V99.6663H101.773Z" fill="#AAA98D"/>
<path d="M96.3278 99.6663H26.6384C22.4237 99.6663 18.9931 96.2647 18.9931 92.0613V7.95134L15.3774 1.08301H88.9875C93.0388 1.08301 96.3278 4.35467 96.3278 8.38467V99.6663Z" fill="#EAE9DA"/>
<path d="M29.5571 88.5408C30.3195 89.8083 30.668 91.3467 30.3957 92.9717C30.0037 95.3875 28.174 97.4133 25.8216 98.1067C24.3623 98.54 22.9792 98.4317 21.7485 97.9983C23.2079 99.6775 25.3751 100.75 27.782 100.75H101.762V87.75H29.9928C29.5898 87.75 29.3393 88.1942 29.5571 88.5408Z" fill="#AAA98D"/>
<path d="M111.771 100.75H31.1255C33.5323 99.4823 35.9392 96.9582 35.9392 93.1665H118.991C118.991 96.9582 115.387 100.75 111.771 100.75Z" fill="#EAE9DA"/>
<path d="M88.1598 22.75H48.9534C48.0495 22.75 47.3198 22.0242 47.3198 21.125C47.3198 20.2258 48.0495 19.5 48.9534 19.5H88.1598C89.0638 19.5 89.7934 20.2258 89.7934 21.125C89.7934 22.0242 89.0638 22.75 88.1598 22.75Z" fill="white"/>
<path d="M38.0628 22.75H32.6175C31.7136 22.75 30.9839 22.0242 30.9839 21.125C30.9839 20.2258 31.7136 19.5 32.6175 19.5H38.0628C38.9667 19.5 39.6964 20.2258 39.6964 21.125C39.6964 22.0242 38.9667 22.75 38.0628 22.75Z" fill="white"/>
<path d="M81.6254 34.6665H48.9534C48.0495 34.6665 47.3198 33.9407 47.3198 33.0415C47.3198 32.1423 48.0495 31.4165 48.9534 31.4165H81.6254C82.5294 31.4165 83.259 32.1423 83.259 33.0415C83.259 33.9407 82.5294 34.6665 81.6254 34.6665Z" fill="white"/>
<path d="M38.0628 34.6665H32.6175C31.7136 34.6665 30.9839 33.9407 30.9839 33.0415C30.9839 32.1423 31.7136 31.4165 32.6175 31.4165H38.0628C38.9667 31.4165 39.6964 32.1423 39.6964 33.0415C39.6964 33.9407 38.9667 34.6665 38.0628 34.6665Z" fill="white"/>
<path d="M71.8238 46.583H48.9534C48.0495 46.583 47.3198 45.8572 47.3198 44.958C47.3198 44.0588 48.0495 43.333 48.9534 43.333H71.8238C72.7278 43.333 73.4574 44.0588 73.4574 44.958C73.4574 45.8572 72.7278 46.583 71.8238 46.583Z" fill="white"/>
<path d="M38.0628 46.583H32.6175C31.7136 46.583 30.9839 45.8572 30.9839 44.958C30.9839 44.0588 31.7136 43.333 32.6175 43.333H38.0628C38.9667 43.333 39.6964 44.0588 39.6964 44.958C39.6964 45.8572 38.9667 46.583 38.0628 46.583Z" fill="white"/>
<path d="M69.6457 58.5H48.9534C48.0495 58.5 47.3198 57.7742 47.3198 56.875C47.3198 55.9758 48.0495 55.25 48.9534 55.25H69.6457C70.5496 55.25 71.2793 55.9758 71.2793 56.875C71.2793 57.7742 70.5496 58.5 69.6457 58.5Z" fill="white"/>
<path d="M38.0628 58.5H32.6175C31.7136 58.5 30.9839 57.7742 30.9839 56.875C30.9839 55.9758 31.7136 55.25 32.6175 55.25H38.0628C38.9667 55.25 39.6964 55.9758 39.6964 56.875C39.6964 57.7742 38.9667 58.5 38.0628 58.5Z" fill="white"/>
<path d="M70.7348 70.4165H48.9534C48.0495 70.4165 47.3198 69.6907 47.3198 68.7915C47.3198 67.8923 48.0495 67.1665 48.9534 67.1665H70.7348C71.6387 67.1665 72.3684 67.8923 72.3684 68.7915C72.3684 69.6907 71.6387 70.4165 70.7348 70.4165Z" fill="white"/>
<path d="M38.0628 70.4165H32.6175C31.7136 70.4165 30.9839 69.6907 30.9839 68.7915C30.9839 67.8923 31.7136 67.1665 32.6175 67.1665H38.0628C38.9667 67.1665 39.6964 67.8923 39.6964 68.7915C39.6964 69.6907 38.9667 70.4165 38.0628 70.4165Z" fill="white"/>
<path d="M101.773 83.4163C115.607 83.4163 126.822 72.2608 126.822 58.4997C126.822 44.7386 115.607 33.583 101.773 33.583C87.9392 33.583 76.7246 44.7386 76.7246 58.4997C76.7246 72.2608 87.9392 83.4163 101.773 83.4163Z" fill="#14412D"/>
<path d="M99.0505 83.2649C111.381 83.2649 121.376 72.1772 121.376 58.4999C121.376 44.8225 111.381 33.7349 99.0505 33.7349C86.7202 33.7349 76.7246 44.8225 76.7246 58.4999C76.7246 72.1772 86.7202 83.2649 99.0505 83.2649Z" fill="#41A550"/>
<path d="M28.2612 104C27.9345 104 27.6187 103.902 27.3682 103.729C27.2157 103.74 27.0741 103.74 26.9217 103.74C21.3892 103.74 16.8696 99.2548 16.8369 93.7407V10.2915C16.8369 9.39234 17.5666 8.6665 18.4705 8.6665C19.3744 8.6665 20.1041 9.39234 20.1041 10.2915V93.7407C20.1259 97.4565 23.1862 100.501 26.9217 100.501C30.6681 100.501 33.7175 97.4565 33.7175 93.719C33.7175 92.8198 34.4471 92.094 35.3511 92.094H119.612C120.516 92.094 121.246 92.8198 121.246 93.719C121.246 99.179 116.868 103.697 111.281 104.011L28.2612 104ZM34.0768 100.75H111.172C114.374 100.566 117.042 98.3015 117.772 95.3332H36.8431C36.4946 97.424 35.5035 99.2982 34.0768 100.75Z" fill="black"/>
<path d="M102.318 33.5833C101.414 33.5833 100.684 32.8575 100.684 31.9583V10.01C100.684 6.28333 97.6349 3.25 93.8885 3.25H10.8362C9.93231 3.25 9.20264 2.52417 9.20264 1.625C9.20264 0.725833 9.93231 0 10.8362 0H93.8885C99.4318 0 103.951 4.485 103.951 10.01V31.9583C103.951 32.8575 103.222 33.5833 102.318 33.5833Z" fill="black"/>
<path d="M18.4597 11.9167C18.2637 11.9167 18.0894 11.8842 17.9152 11.8192C17.7409 11.8733 17.5667 11.9167 17.3706 11.9167H1.6336C0.729675 11.9167 0 11.1908 0 10.2917C0 4.615 4.36716 0 9.74715 0C15.2578 0 20.0933 4.81 20.0933 10.2917C20.0933 11.1908 19.3636 11.9167 18.4597 11.9167ZM3.44145 8.66667H16.6192C15.835 5.64417 12.9599 3.25 9.74715 3.25C6.68687 3.25 4.11667 5.56833 3.44145 8.66667Z" fill="black"/>
<path d="M101.774 85.5832C86.7553 85.5832 74.5469 73.439 74.5469 58.4998C74.5469 43.5607 86.7553 31.4165 101.774 31.4165C116.792 31.4165 129 43.5607 129 58.4998C129 73.439 116.781 85.5832 101.774 85.5832ZM101.774 34.6665C88.5632 34.6665 77.8141 45.359 77.8141 58.4998C77.8141 71.6407 88.5632 82.3332 101.774 82.3332C114.984 82.3332 125.733 71.6407 125.733 58.4998C125.733 45.359 114.984 34.6665 101.774 34.6665Z" fill="black"/>
<path d="M102.318 94.2498C101.414 94.2498 100.684 93.524 100.684 92.6248V85.0415C100.684 84.1423 101.414 83.4165 102.318 83.4165C103.222 83.4165 103.951 84.1423 103.951 85.0415V92.6248C103.951 93.524 103.222 94.2498 102.318 94.2498Z" fill="black"/>
<path d="M116.225 51.6209L98.3862 69.355L88.3994 59.4967L92.4725 55.5209L98.3862 61.3384L112.163 47.645L116.225 51.6209Z" fill="white"/>
</g>
<defs>
<clipPath id="clip0">
<rect width="129" height="104" fill="white"/>
</clipPath>
</defs>
</svg>
