<svg width="116" height="102" viewBox="0 0 116 102" fill="none" xmlns="http://www.w3.org/2000/svg">
<path d="M80 100H10L14 24H76L80 100Z" fill="#EAE9DA"/>
<path d="M78 46H31V100H78V46Z" fill="#AAA98D"/>
<path d="M106 51H36V100H106V51Z" fill="#41A550"/>
<path d="M58.5 66C60.433 66 62 64.433 62 62.5C62 60.567 60.433 59 58.5 59C56.567 59 55 60.567 55 62.5C55 64.433 56.567 66 58.5 66Z" fill="#14412D"/>
<path d="M83.5 66C85.433 66 87 64.433 87 62.5C87 60.567 85.433 59 83.5 59C81.567 59 80 60.567 80 62.5C80 64.433 81.567 66 83.5 66Z" fill="#14412D"/>
<path d="M31.5 37C33.433 37 35 35.433 35 33.5C35 31.567 33.433 30 31.5 30C29.567 30 28 31.567 28 33.5C28 35.433 29.567 37 31.5 37Z" fill="#AAA98D"/>
<path d="M58.5 37C60.433 37 62 35.433 62 33.5C62 31.567 60.433 30 58.5 30C56.567 30 55 31.567 55 33.5C55 35.433 56.567 37 58.5 37Z" fill="#AAA98D"/>
<path d="M114.5 102H1.5C0.67 102 0 101.33 0 100.5C0 99.67 0.67 99 1.5 99H114.5C115.33 99 116 99.67 116 100.5C116 101.33 115.33 102 114.5 102Z" fill="black"/>
<path d="M9.49985 101C9.46985 101 9.44985 101 9.41985 101C8.58985 100.96 7.95985 100.25 7.99985 99.42L11.9999 23.42C12.0399 22.62 12.6999 22 13.4999 22H76.4998C77.2999 22 77.9598 22.62 77.9998 23.42L79.3598 49.34C79.3998 50.17 78.7699 50.87 77.9398 50.92C77.0798 50.95 76.4099 50.33 76.3598 49.5L75.0798 25H14.9199L10.9999 99.58C10.9599 100.38 10.2899 101 9.49985 101Z" fill="black"/>
<path d="M106.5 102H35.5C34.67 102 34 101.33 34 100.5V50.5C34 49.67 34.67 49 35.5 49H106.5C107.33 49 108 49.67 108 50.5V100.5C108 101.33 107.33 102 106.5 102ZM37 99H105V52H37V99Z" fill="black"/>
<path d="M58.5 33C57.67 33 57 32.33 57 31.5V15C57 8.38 51.62 3 45 3C38.38 3 33 8.38 33 15V31.5C33 32.33 32.33 33 31.5 33C30.67 33 30 32.33 30 31.5V15C30 6.73 36.73 0 45 0C53.27 0 60 6.73 60 15V31.5C60 32.33 59.33 33 58.5 33Z" fill="black"/>
<path d="M71 85C63.28 85 57 78.72 57 71V64.5C57 63.67 57.67 63 58.5 63C59.33 63 60 63.67 60 64.5V71C60 77.07 64.93 82 71 82C77.07 82 82 77.07 82 71V64.5C82 63.67 82.67 63 83.5 63C84.33 63 85 63.67 85 64.5V71C85 78.72 78.72 85 71 85Z" fill="black"/>
</svg>
