<svg width="109" height="58" viewBox="0 0 109 58" fill="none" xmlns="http://www.w3.org/2000/svg">
<g clip-path="url(#clip0)">
<path d="M27.0801 23.6598L44.8701 21.1698L52.6001 4.31982L63.5001 23.2198L35.7401 33.7098L27.0801 23.6598Z" fill="#14412D"/>
<path d="M56.8002 9.66016L63.5002 23.2202L80.9602 25.7602L68.3302 38.0802L71.3102 55.4602L55.6902 47.2502L37.9302 54.1602L40.9202 36.7702L31.7402 27.4002L48.9202 26.8402L56.8002 9.66016Z" fill="#41A550"/>
<path d="M70.5703 57.6201C70.2303 57.6201 69.8803 57.5401 69.5703 57.3701L53.7603 49.0601L37.9503 57.3701C37.2203 57.7501 36.3403 57.6901 35.6803 57.2101C35.0203 56.7301 34.6803 55.9101 34.8203 55.1001L37.8403 37.5001L25.0403 25.0301C24.4503 24.4601 24.2403 23.6001 24.4903 22.8201C24.7403 22.0401 25.4203 21.4701 26.2303 21.3501L43.9103 18.7801L51.8103 2.76006C52.1703 2.02006 52.9203 1.56006 53.7503 1.56006C54.5703 1.56006 55.3203 2.03006 55.6903 2.76006L63.5903 18.7801L81.2603 21.3501C82.0703 21.4701 82.7503 22.0401 83.0003 22.8201C83.2503 23.6001 83.0403 24.4601 82.4503 25.0301L69.6803 37.5001L72.7003 55.1001C72.8403 55.9101 72.5103 56.7301 71.8403 57.2101C71.4603 57.4801 71.0203 57.6201 70.5703 57.6201ZM31.1903 24.9901L41.6603 35.2001C42.1703 35.7001 42.4003 36.4101 42.2803 37.1101L39.8103 51.5201L52.7503 44.7201C53.3803 44.3901 54.1303 44.3901 54.7603 44.7201L67.7003 51.5201L65.2303 37.1101C65.1103 36.4101 65.3403 35.7001 65.8503 35.2001L76.3203 24.9901L61.8503 22.8901C61.1503 22.7901 60.5403 22.3501 60.2203 21.7101L53.7603 8.60006L47.2903 21.7101C46.9703 22.3501 46.3703 22.7901 45.6603 22.8901L31.1903 24.9901Z" fill="black"/>
<path d="M9.64015 41.9501C9.19015 41.9501 8.75015 41.8101 8.37015 41.5401C7.71015 41.0601 7.37015 40.2401 7.51015 39.4301L9.63015 27.0701L0.650149 18.3201C0.0601492 17.7501 -0.149851 16.8901 0.100149 16.1101C0.350149 15.3301 1.03015 14.7601 1.84015 14.6401L14.2501 12.8401L19.8001 1.59014C20.1601 0.850137 20.9101 0.390137 21.7401 0.390137C22.5601 0.390137 23.3101 0.860137 23.6801 1.59014L29.7301 13.8501C30.2601 14.9201 29.8201 16.2101 28.7501 16.7401C27.6801 17.2701 26.3902 16.8301 25.8601 15.7601L21.7401 7.42014L17.6301 15.7601C17.3101 16.4001 16.7101 16.8401 16.0001 16.9401L6.80015 18.2801L13.4601 24.7701C13.9701 25.2701 14.2001 25.9801 14.0801 26.6801L12.5101 35.8401L20.7401 31.5101C21.5801 31.0701 22.6001 31.2301 23.2701 31.8901L28.8701 37.4901C29.7101 38.3301 29.7101 39.7001 28.8701 40.5401C28.0301 41.3801 26.6601 41.3801 25.8201 40.5401L21.3501 36.0701L10.6401 41.7001C10.3301 41.8701 9.98015 41.9501 9.64015 41.9501Z" fill="black"/>
<path d="M98.68 42.34C98.34 42.34 97.99 42.26 97.68 42.09L86.73 36.33L81.68 41.33C80.83 42.17 79.46 42.16 78.63 41.31C77.79 40.46 77.8 39.1 78.65 38.26L84.83 32.15C85.5 31.49 86.52 31.34 87.35 31.77L95.83 36.23L94.21 26.79C94.09 26.09 94.32 25.38 94.83 24.88L101.69 18.19L92.21 16.81C91.51 16.71 90.9 16.27 90.58 15.63L86.34 7.04L82.1 15.63C81.57 16.7 80.28 17.14 79.21 16.61C78.14 16.08 77.7 14.79 78.23 13.72L84.39 1.2C84.75 0.47 85.5 0 86.33 0C87.15 0 87.9 0.47 88.27 1.2L93.94 12.7L106.63 14.54C107.44 14.66 108.12 15.23 108.37 16.01C108.62 16.79 108.41 17.65 107.82 18.22L98.64 27.17L100.81 39.81C100.95 40.62 100.61 41.44 99.95 41.92C99.57 42.2 99.13 42.34 98.68 42.34Z" fill="black"/>
</g>
<defs>
<clipPath id="clip0">
<rect width="108.47" height="57.62" fill="white"/>
</clipPath>
</defs>
</svg>
