<svg width="129" height="110" viewBox="0 0 129 110" fill="none" xmlns="http://www.w3.org/2000/svg">
<g clip-path="url(#clip0)">
<path d="M26.7336 101.646C35.3748 101.646 42.3799 94.6414 42.3799 86.0002C42.3799 77.3591 35.3748 70.354 26.7336 70.354C18.0925 70.354 11.0874 77.3591 11.0874 86.0002C11.0874 94.6414 18.0925 101.646 26.7336 101.646Z" fill="#EAE9DA"/>
<path d="M105.45 101.646C114.092 101.646 121.097 94.6414 121.097 86.0002C121.097 77.3591 114.092 70.354 105.45 70.354C96.8093 70.354 89.8042 77.3591 89.8042 86.0002C89.8042 94.6414 96.8093 101.646 105.45 101.646Z" fill="#EAE9DA"/>
<path d="M66.1188 58.4844L58.5654 63.8796C58.5654 63.8796 61.8026 68.1958 61.8026 71.433C61.8026 73.2997 60.7235 88.6978 60.7235 88.6978L67.1978 89.7769C67.1978 89.7769 69.971 67.7534 69.3559 64.9587C68.7409 62.1639 66.1188 58.4844 66.1188 58.4844Z" fill="#FFDCB4"/>
<path d="M96.3325 45.5361L100.649 57.4056H110.36L114.676 44.457L96.3325 45.5361Z" fill="#41A550"/>
<path d="M104.026 57.9126C103.389 57.9126 102.785 57.5349 102.526 56.9091L98.2964 46.6905C97.9511 45.8596 98.3503 44.9208 99.1704 44.5755C100.001 44.241 100.94 44.6295 101.285 45.4496L105.515 55.6682C105.861 56.499 105.461 57.4378 104.641 57.7831C104.436 57.8694 104.231 57.9126 104.026 57.9126Z" fill="#14412D"/>
<path d="M26.7334 64.959C15.112 64.959 5.69189 74.3791 5.69189 86.0005C5.69189 97.6219 15.112 107.042 26.7334 107.042C38.3548 107.042 47.7749 97.6219 47.7749 86.0005C47.7749 74.3791 38.3548 64.959 26.7334 64.959ZM26.7334 100.568C18.6837 100.568 12.1662 94.0502 12.1662 86.0005C12.1662 77.9508 18.6837 71.4333 26.7334 71.4333C34.7831 71.4333 41.3006 77.9508 41.3006 86.0005C41.3006 94.0502 34.7831 100.568 26.7334 100.568Z" fill="#FFBB96"/>
<path d="M105.504 64.959C93.883 64.959 84.4629 74.3791 84.4629 86.0005C84.4629 97.6219 93.883 107.042 105.504 107.042C117.126 107.042 126.546 97.6219 126.546 86.0005C126.546 74.3791 117.126 64.959 105.504 64.959ZM105.504 100.568C97.4547 100.568 90.9372 94.0502 90.9372 86.0005C90.9372 77.9508 97.4547 71.4333 105.504 71.4333C113.554 71.4333 120.072 77.9508 120.072 86.0005C120.072 94.0502 113.554 100.568 105.504 100.568Z" fill="#FFBB96"/>
<path d="M67.5755 96.9849L60.2703 95.3987C59.0834 95.1398 58.328 93.9744 58.587 92.7874C58.846 91.6005 60.0114 90.8451 61.1983 91.1041L68.5035 92.6903C69.6904 92.9493 70.4458 94.1146 70.1868 95.3016C69.9386 96.4886 68.7625 97.2439 67.5755 96.9849Z" fill="#41A550"/>
<path d="M72.291 28.4331L68.2554 35.598L71.1256 39.1697L84.5059 43.0758C86.2863 43.8527 88.3797 43.0974 89.2429 41.3601C90.1601 39.515 89.3832 37.2813 87.5165 36.4073L76.1109 33.2025L72.291 28.4331Z" fill="#FFDCB4"/>
<path d="M61.803 6.06445L62.9576 14.3947L61.5332 17.4916L65.5904 20.1029L67.0148 17.006C70.3814 16.8118 72.1619 13.5099 73.3057 9.01026L61.803 6.06445Z" fill="#FFDCB4"/>
<path d="M74.1582 9.53889C74.3308 9.06411 74.4495 8.56775 74.5035 8.0498C74.8919 4.49972 72.3238 1.30573 68.7629 0.917273C65.2128 0.528814 62.0188 3.09696 61.6304 6.65782C61.6304 6.70099 74.1582 9.53889 74.1582 9.53889Z" fill="#41A550"/>
<path d="M65.3313 32.5442L67.8671 35.0476L72.3559 28.228L64.6731 19.4446C64.6731 19.4446 63.4969 18.2036 62.7092 17.826C59.8389 16.5095 56.4723 17.7936 55.3932 20.5991L47.3004 41.5219C46.8579 42.6765 46.5234 44.2304 46.5234 45.4281L59.6339 47.4891L65.3313 32.5442Z" fill="#14412D"/>
<path d="M50.6131 55.5713L58.5549 63.9663L66.6262 58.4308L59.6232 47.5216C59.634 47.4892 46.5235 45.4282 46.5235 45.4282C46.5127 49.1186 47.9371 52.7442 50.6131 55.5713Z" fill="#FF7A45"/>
<path d="M72.3557 28.2278L64.6728 19.4443C64.6728 19.4443 64.1009 18.8509 63.4967 18.3545C62.2773 18.894 61.263 19.8652 60.7559 21.1816L52.663 42.1044C52.2206 43.259 51.9185 44.2301 51.9185 45.4279L59.8495 46.6688L65.3311 32.544L67.8668 35.0474L72.3557 28.2278Z" fill="#41A550"/>
<path d="M51.4009 46.1943C52.0483 48.4388 53.2353 50.5429 54.9294 52.3341L62.8712 60.7292L66.5076 58.2365L59.634 47.5216C59.634 47.4892 51.4009 46.1943 51.4009 46.1943Z" fill="#FFBB96"/>
<path d="M1.37593 109.2C0.782448 109.2 0.296875 108.715 0.296875 108.121C0.296875 107.528 0.782448 107.042 1.37593 107.042H126.546C127.139 107.042 127.625 107.528 127.625 108.121C127.625 108.715 127.139 109.2 126.546 109.2" fill="black"/>
<path d="M105.504 109.2C92.7067 109.2 82.3047 98.7979 82.3047 86.0004C82.3047 73.2028 92.7067 62.8008 105.504 62.8008C118.302 62.8008 128.704 73.2028 128.704 86.0004C128.704 98.7979 118.302 109.2 105.504 109.2ZM105.504 66.0379C94.498 66.0379 85.5418 74.9941 85.5418 86.0004C85.5418 97.0067 94.498 105.963 105.504 105.963C116.511 105.963 125.467 97.0067 125.467 86.0004C125.467 74.9941 116.511 66.0379 105.504 66.0379Z" fill="black"/>
<path d="M26.7338 109.2C13.9362 109.2 3.53418 98.7979 3.53418 86.0004C3.53418 73.2028 13.9362 62.8008 26.7338 62.8008C39.5313 62.8008 49.9334 73.2136 49.9334 86.0004C49.9334 98.7871 39.5313 109.2 26.7338 109.2ZM26.7338 66.0379C15.7275 66.0379 6.77133 74.9941 6.77133 86.0004C6.77133 97.0067 15.7275 105.963 26.7338 105.963C37.7401 105.963 46.6962 97.0067 46.6962 86.0004C46.6962 74.9941 37.7401 66.0379 26.7338 66.0379Z" fill="black"/>
<path d="M105.882 88.6658C105.256 88.6658 104.652 88.2989 104.393 87.6838L86.1031 44.8455C85.747 44.0254 86.1354 43.0759 86.9555 42.7198C87.7756 42.3637 88.7252 42.7521 89.0813 43.5722L107.382 86.3998C107.738 87.2198 107.35 88.1694 106.53 88.5255C106.314 88.6226 106.098 88.6658 105.882 88.6658Z" fill="black"/>
<path d="M97.9511 54.1683H65.5795C64.6839 54.1683 63.9609 53.4453 63.9609 52.5497C63.9609 51.6541 64.6839 50.9312 65.5795 50.9312H97.9511C98.8467 50.9312 99.5696 51.6541 99.5696 52.5497C99.5696 53.4453 98.8467 54.1683 97.9511 54.1683Z" fill="black"/>
<path d="M59.1053 88.6981H25.6547C24.7591 88.6981 24.0361 87.9751 24.0361 87.0795C24.0361 86.1839 24.7591 85.4609 25.6547 85.4609H59.1053C60.0009 85.4609 60.7239 86.1839 60.7239 87.0795C60.7239 87.9751 60.0009 88.6981 59.1053 88.6981Z" fill="black"/>
<path d="M105.504 89.777C107.59 89.777 109.281 88.0861 109.281 86.0003C109.281 83.9145 107.59 82.2236 105.504 82.2236C103.418 82.2236 101.728 83.9145 101.728 86.0003C101.728 88.0861 103.418 89.777 105.504 89.777Z" fill="black"/>
<path d="M26.7337 89.777C28.8195 89.777 30.5104 88.0861 30.5104 86.0003C30.5104 83.9145 28.8195 82.2236 26.7337 82.2236C24.6479 82.2236 22.957 83.9145 22.957 86.0003C22.957 88.0861 24.6479 89.777 26.7337 89.777Z" fill="black"/>
<path d="M68.8164 81.1449C68.428 81.1449 68.0287 81.0046 67.7266 80.7133C67.0684 80.109 67.0252 79.0839 67.6295 78.4257L89.6421 54.4707C90.2464 53.8125 91.2715 53.7693 91.9297 54.3736C92.5879 54.9779 92.6311 56.003 92.0268 56.6612L70.0142 80.6161C69.6904 80.9722 69.248 81.1449 68.8164 81.1449Z" fill="black"/>
<path d="M26.1401 88.6656C25.7624 88.6656 25.3848 88.5362 25.0718 88.2664C24.4028 87.6729 24.3381 86.6586 24.9208 85.9788L50.1382 57.2545C50.7209 56.5855 51.746 56.5207 52.4258 57.1034C53.0948 57.6969 53.1596 58.7112 52.5769 59.391L27.3594 88.1153C27.0465 88.4822 26.5933 88.6656 26.1401 88.6656Z" fill="black"/>
<path d="M45.0774 64.959C44.7429 64.959 44.3976 64.8511 44.1062 64.6353L35.9054 58.4847H20.2592C19.3636 58.4847 18.6406 57.7617 18.6406 56.8661C18.6406 55.9705 19.3636 55.2476 20.2592 55.2476H36.445C36.7903 55.2476 37.1356 55.3663 37.4161 55.5713L46.0485 62.0456C46.7607 62.5851 46.9118 63.5994 46.3722 64.3116C46.0593 64.7324 45.5737 64.959 45.0774 64.959Z" fill="black"/>
<path d="M110.9 59.5637H101.188C100.53 59.5637 99.9475 59.1752 99.6993 58.571L94.304 45.6224C94.099 45.126 94.153 44.5541 94.4551 44.1009C94.7573 43.6477 95.2644 43.3779 95.8039 43.3779H115.227C115.745 43.3779 116.23 43.6261 116.543 44.0469C116.845 44.4678 116.932 45.0073 116.77 45.5037L112.454 58.4523C112.216 59.1213 111.601 59.5637 110.9 59.5637ZM102.267 56.3265H109.734L112.972 46.6151H98.221L102.267 56.3265Z" fill="black"/>
<path d="M67.7917 99.9419C67.4032 99.9419 67.0148 99.8988 66.6263 99.8017L59.9038 98.1399C58.6413 97.827 57.5839 97.0501 56.9148 95.9387C56.2458 94.8272 56.0516 93.5216 56.3645 92.2591L56.4724 91.8167C57.1199 89.2162 59.7527 87.6192 62.3533 88.2666L69.0758 89.9283C71.6763 90.5758 73.2625 93.2086 72.6258 95.8092L72.5179 96.2516C71.9568 98.4636 69.9714 99.9419 67.7917 99.9419ZM67.4032 96.6616C68.2773 96.8774 69.1513 96.3487 69.3671 95.4747L69.475 95.0322C69.6908 94.169 69.1621 93.2842 68.288 93.0684L61.5656 91.4066C60.7023 91.1908 59.8175 91.7196 59.6017 92.5936L59.4938 93.036C59.278 93.8992 59.8067 94.7841 60.6807 94.9999L67.4032 96.6616Z" fill="black"/>
<path d="M66.259 20.599C66.108 20.599 65.9461 20.5666 65.8058 20.4911C65.2663 20.2321 65.0397 19.5955 65.2879 19.056L66.4964 16.4878C66.6475 16.1641 66.9496 15.9375 67.3057 15.8835C68.6653 15.6785 69.8307 14.8153 70.4134 13.5636L71.8917 10.4343C72.0751 10.0351 72.1938 9.60346 72.2478 9.08552C72.3017 8.49204 72.8413 8.07121 73.4239 8.11437C74.0174 8.16832 74.449 8.69706 74.3951 9.29054C74.3196 10.0459 74.1361 10.7257 73.8448 11.3407L72.3665 14.47C71.5572 16.1857 70.0249 17.4266 68.2121 17.8798L67.2302 19.9624C67.0575 20.3724 66.6691 20.599 66.259 20.599Z" fill="black"/>
<path d="M59.1053 48.7733C59.019 48.7733 58.9218 48.7625 58.8355 48.7517L48.1637 46.9389C47.2789 46.7879 46.6854 45.957 46.8365 45.0722C46.9875 44.1873 47.8292 43.6047 48.7032 43.7449L59.3751 45.5577C60.2599 45.7088 60.8534 46.5397 60.7023 47.4245C60.562 48.2122 59.8822 48.7733 59.1053 48.7733Z" fill="black"/>
<path d="M74.9242 10.6392C74.8379 10.6392 74.7624 10.6284 74.6868 10.6068L61.1879 7.49917C60.6052 7.36968 60.2491 6.78699 60.3786 6.20431C61.3713 1.89889 65.6875 -0.787948 69.9822 0.204779C74.2876 1.19751 76.9744 5.50292 75.9817 9.80834C75.9169 10.0889 75.7443 10.3263 75.5069 10.4773C75.3235 10.5853 75.1292 10.6392 74.9242 10.6392ZM62.8173 5.66478L74.0178 8.2545C74.1365 5.50292 72.2697 2.95636 69.4858 2.31972C67.9643 1.96363 66.3997 2.2334 65.0725 3.05347C64.0582 3.67932 63.2812 4.58573 62.8173 5.66478Z" fill="black"/>
<path d="M63.5078 18.6351C63.3783 18.7646 63.2057 18.8509 63.0114 18.8941C62.4503 19.0128 61.9 18.6567 61.7705 18.0956L61.231 15.6461C61.1339 15.2145 61.1015 14.7721 61.1231 14.3297L61.4792 6.74397C61.5008 6.17208 61.9971 5.72966 62.569 5.75125C63.1409 5.77283 63.5833 6.26919 63.5617 6.84109L63.2057 14.4268C63.1949 14.6858 63.2164 14.9448 63.2704 15.2037L63.7991 17.6532C63.8962 18.0308 63.7668 18.3977 63.5078 18.6351Z" fill="black"/>
<path d="M67.1764 92.5826C67.1117 92.5826 67.0469 92.5826 66.9822 92.5719C66.0973 92.464 65.4607 91.6655 65.5686 90.7698L68.331 67.6566C68.5576 65.7682 68.1367 63.8259 67.144 62.2074L58.2742 48.3955C57.9937 47.9639 57.9397 47.4243 58.1232 46.9496L63.8313 31.9723C64.0256 31.4652 64.468 31.0875 64.9967 30.9688C65.5254 30.8609 66.0866 31.012 66.475 31.4004L72.6688 37.5079L85.7145 42.0723C85.7792 42.0938 85.8332 42.1154 85.8979 42.1478C86.4051 42.396 86.977 42.4283 87.5165 42.2557C88.056 42.0723 88.4769 41.6946 88.725 41.1874C88.9732 40.6803 89.0164 40.1084 88.833 39.5688C88.6603 39.0725 88.3258 38.6624 87.8618 38.4035L76.4023 34.9289C76.1109 34.8426 75.852 34.67 75.6577 34.4434L63.4537 20.502C63.0328 20.0704 62.2991 19.423 61.9969 19.2719C61.0258 18.8295 59.8712 18.7971 58.8677 19.2072C57.9397 19.5848 57.2491 20.2862 56.9038 21.171L48.8001 42.1046C47.2895 46.0216 48.4872 50.9852 51.7783 54.4598L60.2057 63.3619C62.612 65.9085 63.7558 69.3507 63.335 72.8252L61.4035 89.0542C61.2956 89.939 60.4971 90.5864 59.6015 90.4677C58.7166 90.3598 58.08 89.5613 58.1879 88.6657L60.1194 72.4368C60.4215 69.9226 59.5907 67.4192 57.8534 65.574L49.426 56.6718C45.2932 52.3124 43.8365 45.9784 45.7788 40.9285L53.8717 19.9949C54.5407 18.2684 55.8679 16.9196 57.6268 16.1966C59.4612 15.4521 61.5545 15.4952 63.3673 16.3369C64.3924 16.844 65.5902 18.0741 65.8276 18.3115L77.7727 31.9508L88.9301 35.339C89.0164 35.3605 89.0919 35.3929 89.1783 35.4361C90.4623 36.0619 91.4227 37.1626 91.8867 38.5114C92.3507 39.8602 92.2535 41.3169 91.6277 42.601C91.0019 43.8851 89.912 44.8454 88.5524 45.3094C87.236 45.7626 85.8224 45.6871 84.5599 45.0936L71.2552 40.4429C71.0286 40.3673 70.8236 40.2379 70.6509 40.0652L65.9679 35.4469L61.4358 47.338L69.8848 60.4917C71.2768 62.7685 71.8595 65.4337 71.5466 68.045L68.7842 91.1583C68.6871 91.9784 67.9857 92.5826 67.1764 92.5826Z" fill="black"/>
<path d="M68.9787 35.5332C68.655 35.5332 68.3421 35.4361 68.0507 35.2419C67.317 34.7347 67.1335 33.7204 67.6407 32.9867L70.9534 28.2172C71.4605 27.4835 72.4749 27.3 73.2086 27.8072C73.9424 28.3144 74.1258 29.3287 73.6186 30.0624L70.306 34.8318C69.993 35.285 69.4859 35.5332 68.9787 35.5332Z" fill="black"/>
<path d="M59.1053 64.959C58.5873 64.959 58.0694 64.7108 57.7565 64.236C57.2601 63.4915 57.4651 62.488 58.2097 61.9916L64.684 57.6754C65.4285 57.179 66.432 57.3841 66.9284 58.1286C67.4248 58.8731 67.2197 59.8767 66.4752 60.373L60.0009 64.6892C59.7311 64.8727 59.4182 64.959 59.1053 64.959Z" fill="black"/>
</g>
<defs>
<clipPath id="clip0">
<rect width="128.407" height="109.2" fill="white" transform="translate(0.296875)"/>
</clipPath>
</defs>
</svg>
