<svg width="108" height="114" viewBox="0 0 108 114" fill="none" xmlns="http://www.w3.org/2000/svg">
<g clip-path="url(#clip0)">
<path d="M69 13H2V94H69V13Z" fill="#AAA98D"/>
<path d="M64 13H2V94H64V13Z" fill="#EAE9DA"/>
<path d="M49.9401 68.76C49.8901 68.76 49.8301 68.76 49.7801 68.76C45.8301 68.76 42.2601 70.87 40.4601 74.26C39.0701 76.88 38.8401 79.97 39.8401 82.75C40.8101 85.46 42.8701 87.67 45.5001 88.82L59.0001 95H67.0001L66.0001 78.01L53.0001 59L48.1801 65L49.9401 68.76Z" fill="#AAA98D"/>
<path d="M69 12H2V6.01C2 3.8 3.8 2 6.01 2H64.99C67.2 2 69 3.8 69 6.01V12Z" fill="#14412D"/>
<path d="M64 12H2V6.01C2 3.8 3.8 2 6.01 2H59.99C62.2 2 64 3.8 64 6.01V12Z" fill="#41A550"/>
<path d="M69 95H2V100.99C2 103.2 3.8 105 6.01 105H64.99C67.2 105 69 103.2 69 100.99V95Z" fill="#41A550"/>
<path d="M55 39H16V45H55V39Z" fill="#FFBB96"/>
<path d="M47.23 66H23.77C22.18 66 20.83 64.83 20.61 63.26L18 45H53L50.39 63.26C50.17 64.83 48.82 66 47.23 66Z" fill="#FFBB96"/>
<path d="M43.23 45C43.13 45.2 43.02 45.4 42.93 45.62C41.79 48.34 41.85 51.44 43.1 54.11L48.18 65C49.73 66.64 50.83 62.89 52 60L49.73 45H43.23Z" fill="#FF7A45"/>
<path d="M38.2498 45.82C37.1998 46.31 35.9598 45.85 35.4698 44.8L28.3998 29.59C27.9098 28.54 28.3698 27.3 29.4198 26.81C30.4698 26.32 31.7098 26.78 32.1998 27.83L39.2698 43.05C39.7598 44.09 39.2998 45.33 38.2498 45.82Z" fill="#FFBB96"/>
<path d="M52 52L50.24 49H19L18 46H53L52 52Z" fill="#FF7A45"/>
<path d="M97.92 86.4799L98.85 82.6499C99.23 81.0999 99.09 79.4599 98.47 77.9899L90.32 58.8099C89.04 55.8099 85.73 54.2199 82.59 55.1199L63.74 60.4899L57.71 47.5599C56.5 44.9599 53.51 43.5199 50.8 44.4799C47.69 45.5799 46.28 49.0799 47.64 51.9899L59.43 77.2699L52.05 74.1999C49.4 73.0999 46.22 74.0499 44.87 76.5899C43.32 79.4999 44.64 83.0299 47.61 84.2699L74.54 97.8499L78.16 105.61L101.72 94.6199L97.92 86.4799Z" fill="#FFCBA4"/>
<path d="M81.1602 102.62L101.11 93.3199L97.9202 86.4799L98.8502 82.6499C99.2302 81.0999 99.0902 79.4599 98.4702 77.9899L90.3202 58.8099C89.0402 55.8099 85.7302 54.2199 82.5902 55.1199L63.7402 60.4899L57.7102 47.5599C56.4602 44.8799 53.3202 43.4299 50.5502 44.5799C49.9802 45.9599 49.9702 47.5499 50.6402 48.9999L60.9302 71.0599C61.8302 72.9999 61.4302 75.2899 59.9202 76.7999L59.4402 77.2799L52.0602 74.2099C50.6002 73.5999 49.0002 73.6399 47.6102 74.1999C46.5202 76.9799 47.8502 80.1299 50.6202 81.2799L77.5502 94.8599L81.1602 102.62Z" fill="#FFDCB4"/>
<path d="M101.331 93.4141L76.2104 105.158L79.3655 111.907L104.486 100.163L101.331 93.4141Z" fill="#FFDCB4"/>
<path d="M79.873 103.442L76.2041 105.157L79.3592 111.906L83.0281 110.191L79.873 103.442Z" fill="#FFDCB4"/>
<path d="M69.0002 95.75L67.0002 95H57.7402L69.0002 100.55V95.75Z" fill="#14412D"/>
<path d="M64.58 107H6.42C2.88 107 0 104.12 0 100.58V6.42C0 2.88 2.88 0 6.42 0H64.58C68.12 0 71 2.88 71 6.42V57.5C71 58.33 70.33 59 69.5 59C68.67 59 68 58.33 68 57.5V6.42C68 4.53 66.47 3 64.58 3H6.42C4.53 3 3 4.53 3 6.42V100.58C3 102.47 4.53 104 6.42 104H64.58C66.47 104 68 102.47 68 100.58V96.38C68 95.55 68.67 94.88 69.5 94.88C70.33 94.88 71 95.55 71 96.38V100.58C71 104.12 68.12 107 64.58 107Z" fill="black"/>
<path d="M68.5 14H2.5C1.67 14 1 13.33 1 12.5C1 11.67 1.67 11 2.5 11H68.5C69.33 11 70 11.67 70 12.5C70 13.33 69.33 14 68.5 14Z" fill="black"/>
<path d="M67.5 96H2.5C1.67 96 1 95.33 1 94.5C1 93.67 1.67 93 2.5 93H67.5C68.33 93 69 93.67 69 94.5C69 95.33 68.33 96 67.5 96Z" fill="black"/>
<path d="M37.5001 47.4202C37.1401 47.4202 36.7701 47.3602 36.4201 47.2302C35.6301 46.9402 35.0001 46.3702 34.6501 45.6102L27.4201 30.1102C26.6901 28.5402 27.3701 26.6702 28.9401 25.9402C29.7001 25.5802 30.5601 25.5502 31.3401 25.8402C32.1301 26.1302 32.7601 26.7002 33.1101 27.4602L40.3401 42.9602C41.0701 44.5302 40.3901 46.4002 38.8201 47.1302C38.4001 47.3202 37.9501 47.4202 37.5001 47.4202ZM30.2701 27.6302C30.1101 27.6302 29.9401 27.6702 29.7901 27.7402C29.2201 28.0102 28.9701 28.6902 29.2401 29.2602L36.4701 44.7602C36.6001 45.0402 36.8301 45.2502 37.1101 45.3502C37.4001 45.4602 37.7101 45.4402 37.9801 45.3102C38.5501 45.0402 38.8001 44.3602 38.5301 43.7902L31.3001 28.2902C31.1701 28.0102 30.9401 27.8002 30.6601 27.7002C30.5301 27.6502 30.4001 27.6302 30.2701 27.6302Z" fill="black"/>
<path d="M35.47 46H16C15.45 46 15 45.55 15 45V39C15 38.45 15.45 38 16 38H32.67C33.06 38 33.41 38.23 33.58 38.58L36.38 44.58C36.52 44.89 36.5 45.25 36.32 45.54C36.13 45.83 35.81 46 35.47 46ZM17 44H33.9L32.03 40H17V44Z" fill="black"/>
<path d="M47.5102 67.0002H23.2502C21.4502 67.0002 19.9502 65.7102 19.6802 63.9302L17.0102 46.1502C16.9302 45.6002 17.3102 45.0902 17.8502 45.0102C18.4102 44.9302 18.9102 45.3102 18.9902 45.8502L21.6602 63.6302C21.7802 64.4202 22.4502 65.0002 23.2502 65.0002H47.5102C48.3102 65.0002 48.9802 64.4202 49.1002 63.6302L50.0302 59.7602C50.1602 59.2202 50.7102 58.8902 51.2402 59.0202C51.7802 59.1502 52.1102 59.6902 51.9802 60.2302L51.0702 64.0102C50.8102 65.7102 49.3102 67.0002 47.5102 67.0002Z" fill="black"/>
<path d="M48.82 46H40C39.45 46 39 45.55 39 45C39 44.45 39.45 44 40 44H48.82C49.37 44 49.82 44.45 49.82 45C49.82 45.55 49.37 46 48.82 46Z" fill="black"/>
<path d="M54.9999 46C54.4499 46 53.9999 45.55 53.9999 45V40H38.3999C37.8499 40 37.3999 39.55 37.3999 39C37.3999 38.45 37.8499 38 38.3999 38H54.9999C55.5499 38 55.9999 38.45 55.9999 39V45C55.9999 45.55 55.5499 46 54.9999 46Z" fill="black"/>
<path d="M77.12 104.89C76.55 104.89 76.01 104.57 75.76 104.02L73.4 98.9701L46.98 85.6502C45.19 84.8902 43.79 83.4002 43.13 81.5701C42.47 79.7201 42.62 77.6502 43.55 75.9002C45.22 72.7602 49.21 71.4102 52.63 72.8302L56.44 74.4102L46.28 52.6302C45.45 50.8502 45.41 48.7802 46.17 46.9702C46.93 45.1602 48.44 43.7301 50.3 43.0701C53.66 41.8801 57.51 43.5701 59.07 46.9301L64.56 58.7001L82.18 53.6802C86.04 52.5801 90.13 54.5401 91.7 58.2301L99.85 77.4102C100.6 79.1702 100.76 81.1602 100.31 83.0102L99.5 86.3302L102.02 91.7401C102.37 92.4901 102.05 93.3802 101.29 93.7302C100.54 94.0802 99.65 93.7501 99.3 93.0001L96.55 87.1101C96.41 86.8001 96.37 86.4502 96.45 86.1202L97.38 82.2901C97.68 81.0602 97.57 79.7401 97.08 78.5701L88.93 59.3901C87.95 57.0901 85.4 55.8701 82.99 56.5501L64.14 61.9201C63.42 62.1201 62.68 61.7801 62.37 61.1101L56.35 48.2002C55.43 46.2301 53.21 45.2202 51.3 45.9002C50.21 46.2802 49.37 47.0802 48.93 48.1302C48.5 49.1702 48.52 50.3501 48.99 51.3701L60.78 76.6502C61.04 77.2102 60.93 77.8701 60.5 78.3201C60.07 78.7701 59.41 78.9001 58.84 78.6701L51.46 75.6101C49.45 74.7801 47.14 75.5301 46.18 77.3201C45.64 78.3401 45.55 79.4901 45.94 80.5601C46.32 81.6201 47.13 82.4701 48.17 82.9002C48.2 82.9101 48.24 82.9301 48.27 82.9501L75.2 96.5301C75.5 96.6801 75.74 96.9301 75.88 97.2401L78.46 102.76C78.81 103.51 78.49 104.4 77.73 104.75C77.55 104.84 77.33 104.89 77.12 104.89Z" fill="black"/>
<path d="M78.83 113.85C78.27 113.85 77.72 113.53 77.47 112.98L74.09 105.73C73.92 105.37 73.9 104.96 74.04 104.58C74.18 104.21 74.46 103.9 74.82 103.73L101.54 91.2699C102.29 90.9199 103.18 91.2399 103.53 91.9999L106.91 99.2499C107.08 99.6099 107.1 100.02 106.96 100.4C106.82 100.77 106.54 101.08 106.18 101.25L79.46 113.71C79.26 113.81 79.04 113.85 78.83 113.85ZM77.44 105.83L79.55 110.36L103.55 99.1699L101.44 94.6399L77.44 105.83Z" fill="black"/>
</g>
<defs>
<clipPath id="clip0">
<rect width="107.05" height="113.85" fill="white"/>
</clipPath>
</defs>
</svg>
